<svg width="1920" height="1080" viewBox="0 0 1920 1080" fill="none" xmlns="http://www.w3.org/2000/svg">
<g id="Banner">
<rect id="Outer" x="25" y="25" width="1870" height="1030" stroke="#FF3F0A" stroke-width="50"/>
<path id="[Snapshot]" d="M23 23H1889C1893.42 23 1897 26.5817 1897 31V1049C1897 1053.42 1893.42 1057 1889 1057H31C26.5817 1057 23 1053.42 23 1049V23Z" fill="white"/>
<g id="Header">
<path d="M23 23H873V73C873 86.8071 861.807 98 848 98H23V23Z" fill="#FF3F0A"/>
<path id="Label" d="M31.5254 69.6328V61.3125C32.541 60.1602 33.5469 59.0176 34.543 57.8848C35.5586 56.752 36.5742 55.6191 37.5898 54.4863C38.6055 53.334 39.6309 52.1816 40.666 51.0293L53.0879 37.3477H61.3203L42.7754 57.6797H42.3359L31.5254 69.6328ZM26.9844 81V37.3477H33.4883V51.498V61.3711V64.5059V81H26.9844ZM53.8496 81L38.8203 59.4668L42.8047 54.3984L61.4668 81H53.8496ZM74.0668 81.7031C71.1176 81.7031 68.5297 81.0195 66.3031 79.6523C64.0766 78.2852 62.3383 76.3906 61.0883 73.9688C59.8578 71.5469 59.2426 68.7539 59.2426 65.5898C59.2426 62.3867 59.8578 59.5742 61.0883 57.1523C62.3383 54.7109 64.0766 52.8066 66.3031 51.4395C68.5297 50.0527 71.1176 49.3594 74.0668 49.3594C77.016 49.3594 79.5941 50.0527 81.8012 51.4395C84.0277 52.8066 85.7562 54.7109 86.9867 57.1523C88.2367 59.5742 88.8617 62.3867 88.8617 65.5898C88.8617 68.7539 88.2367 71.5469 86.9867 73.9688C85.7562 76.3906 84.0277 78.2852 81.8012 79.6523C79.5941 81.0195 77.016 81.7031 74.0668 81.7031ZM74.0668 76.3711C75.8246 76.3711 77.3383 75.9316 78.6078 75.0527C79.8969 74.1543 80.8832 72.8945 81.5668 71.2734C82.2699 69.6523 82.6215 67.7578 82.6215 65.5898C82.6215 63.3633 82.2699 61.4395 81.5668 59.8184C80.8832 58.1973 79.8969 56.9375 78.6078 56.0391C77.3383 55.1406 75.8246 54.6914 74.0668 54.6914C72.309 54.6914 70.7855 55.1406 69.4965 56.0391C68.227 56.918 67.2406 58.1777 66.5375 59.8184C65.8539 61.4395 65.5121 63.3633 65.5121 65.5898C65.5121 67.7773 65.8539 69.6816 66.5375 71.3027C67.2406 72.9043 68.227 74.1543 69.4965 75.0527C70.766 75.9316 72.2895 76.3711 74.0668 76.3711ZM98.1219 63.1875V81H91.9402V37.3477H98.1219V57.7383H96.5691C97.5848 54.9648 98.991 52.8945 100.788 51.5273C102.604 50.1406 104.792 49.4473 107.35 49.4473C109.479 49.4473 111.384 49.916 113.063 50.8535C114.762 51.7715 116.1 53.1387 117.077 54.9551C118.054 56.7715 118.542 59.0273 118.542 61.7227V81H112.36V62.4844C112.36 60.0039 111.764 58.1387 110.573 56.8887C109.401 55.6191 107.741 54.9844 105.593 54.9844C104.186 54.9844 102.917 55.2676 101.784 55.834C100.671 56.4004 99.782 57.2891 99.118 58.5C98.4539 59.7109 98.1219 61.2734 98.1219 63.1875ZM132.548 81.498C130.497 81.498 128.661 81.1465 127.04 80.4434C125.439 79.7402 124.169 78.6953 123.232 77.3086C122.294 75.9219 121.825 74.2031 121.825 72.1523C121.825 70.3945 122.157 68.9492 122.821 67.8164C123.505 66.6836 124.423 65.7852 125.575 65.1211C126.728 64.457 128.036 63.959 129.501 63.627C130.966 63.2754 132.48 63.0117 134.042 62.8359C135.995 62.582 137.529 62.3867 138.642 62.25C139.775 62.0938 140.575 61.8594 141.044 61.5469C141.532 61.2148 141.777 60.6777 141.777 59.9355V59.6719C141.777 58.6758 141.532 57.7969 141.044 57.0352C140.556 56.2539 139.843 55.6387 138.905 55.1895C137.968 54.7402 136.845 54.5156 135.536 54.5156C134.228 54.5156 133.066 54.7305 132.05 55.1602C131.054 55.5898 130.253 56.1855 129.648 56.9473C129.062 57.6895 128.73 58.5391 128.652 59.4961H122.587C122.685 57.5234 123.28 55.7852 124.374 54.2812C125.468 52.7773 126.972 51.5957 128.886 50.7363C130.8 49.877 133.046 49.4473 135.624 49.4473C137.519 49.4473 139.228 49.6914 140.751 50.1797C142.275 50.668 143.564 51.3711 144.618 52.2891C145.693 53.1875 146.503 54.2715 147.05 55.541C147.616 56.8105 147.9 58.2266 147.9 59.7891V81H141.806V76.6055H141.689C141.259 77.4453 140.673 78.2363 139.931 78.9785C139.189 79.7207 138.212 80.3262 137.001 80.7949C135.81 81.2637 134.325 81.498 132.548 81.498ZM133.808 76.5176C135.624 76.5176 137.118 76.1953 138.29 75.5508C139.482 74.8867 140.361 74.0176 140.927 72.9434C141.513 71.8691 141.806 70.6973 141.806 69.4277V65.7949C141.591 65.9707 141.239 66.1367 140.751 66.293C140.282 66.4297 139.706 66.5664 139.023 66.7031C138.339 66.8203 137.597 66.9473 136.796 67.084C135.995 67.2207 135.195 67.3379 134.394 67.4355C133.261 67.5918 132.206 67.8555 131.23 68.2266C130.253 68.5781 129.462 69.0762 128.857 69.7207C128.271 70.3652 127.978 71.2148 127.978 72.2695C127.978 73.1484 128.212 73.9102 128.681 74.5547C129.15 75.1797 129.823 75.668 130.702 76.0195C131.581 76.3516 132.616 76.5176 133.808 76.5176ZM149.074 52.3184L151.505 37.3477H157.834L153.498 52.3184H149.074ZM167.094 81.7324C164.73 81.7324 162.602 81.3516 160.707 80.5898C158.812 79.8281 157.289 78.6953 156.137 77.1914C154.984 75.6875 154.33 73.8223 154.174 71.5957H160.268C160.443 73.2559 161.098 74.5449 162.23 75.4629C163.383 76.3613 164.965 76.8105 166.977 76.8105C168.949 76.8105 170.502 76.4102 171.635 75.6094C172.768 74.8086 173.334 73.793 173.334 72.5625C173.334 71.5078 172.924 70.668 172.104 70.043C171.303 69.3984 170.229 68.9297 168.881 68.6367L163.754 67.4941C160.844 66.8496 158.637 65.7852 157.133 64.3008C155.629 62.8164 154.877 60.9316 154.877 58.6465C154.877 56.8105 155.365 55.1992 156.342 53.8125C157.338 52.4258 158.725 51.3418 160.502 50.5605C162.279 49.7793 164.35 49.3887 166.713 49.3887C169.037 49.3887 171.098 49.7988 172.895 50.6191C174.711 51.4395 176.137 52.6016 177.172 54.1055C178.227 55.6094 178.783 57.4062 178.842 59.4961H172.924C172.904 57.9922 172.338 56.752 171.225 55.7754C170.111 54.7793 168.637 54.2812 166.801 54.2812C165.043 54.2812 163.646 54.6914 162.611 55.5117C161.576 56.332 161.059 57.3379 161.059 58.5293C161.059 59.584 161.449 60.4336 162.23 61.0781C163.031 61.7227 164.125 62.2012 165.512 62.5137L170.785 63.6855C173.812 64.3496 176.029 65.375 177.436 66.7617C178.861 68.1484 179.574 69.9648 179.574 72.2109C179.574 74.1836 179.027 75.8828 177.934 77.3086C176.859 78.7148 175.385 79.8086 173.51 80.5898C171.635 81.3516 169.496 81.7324 167.094 81.7324ZM195.048 81V37.3477H201.552V75.2871H222.206V81H195.048ZM234.161 81.498C232.111 81.498 230.275 81.1465 228.654 80.4434C227.052 79.7402 225.782 78.6953 224.845 77.3086C223.907 75.9219 223.439 74.2031 223.439 72.1523C223.439 70.3945 223.771 68.9492 224.435 67.8164C225.118 66.6836 226.036 65.7852 227.189 65.1211C228.341 64.457 229.65 63.959 231.114 63.627C232.579 63.2754 234.093 63.0117 235.655 62.8359C237.609 62.582 239.142 62.3867 240.255 62.25C241.388 62.0938 242.189 61.8594 242.657 61.5469C243.146 61.2148 243.39 60.6777 243.39 59.9355V59.6719C243.39 58.6758 243.146 57.7969 242.657 57.0352C242.169 56.2539 241.456 55.6387 240.519 55.1895C239.581 54.7402 238.458 54.5156 237.15 54.5156C235.841 54.5156 234.679 54.7305 233.663 55.1602C232.667 55.5898 231.866 56.1855 231.261 56.9473C230.675 57.6895 230.343 58.5391 230.265 59.4961H224.2C224.298 57.5234 224.894 55.7852 225.988 54.2812C227.081 52.7773 228.585 51.5957 230.499 50.7363C232.413 49.877 234.659 49.4473 237.238 49.4473C239.132 49.4473 240.841 49.6914 242.364 50.1797C243.888 50.668 245.177 51.3711 246.232 52.2891C247.306 53.1875 248.116 54.2715 248.663 55.541C249.23 56.8105 249.513 58.2266 249.513 59.7891V81H243.419V76.6055H243.302C242.872 77.4453 242.286 78.2363 241.544 78.9785C240.802 79.7207 239.825 80.3262 238.614 80.7949C237.423 81.2637 235.939 81.498 234.161 81.498ZM235.421 76.5176C237.238 76.5176 238.732 76.1953 239.904 75.5508C241.095 74.8867 241.974 74.0176 242.54 72.9434C243.126 71.8691 243.419 70.6973 243.419 69.4277V65.7949C243.204 65.9707 242.853 66.1367 242.364 66.293C241.896 66.4297 241.32 66.5664 240.636 66.7031C239.952 66.8203 239.21 66.9473 238.409 67.084C237.609 67.2207 236.808 67.3379 236.007 67.4355C234.874 67.5918 233.82 67.8555 232.843 68.2266C231.866 68.5781 231.075 69.0762 230.47 69.7207C229.884 70.3652 229.591 71.2148 229.591 72.2695C229.591 73.1484 229.825 73.9102 230.294 74.5547C230.763 75.1797 231.437 75.668 232.316 76.0195C233.195 76.3516 234.23 76.5176 235.421 76.5176ZM269.789 81.6152C268.461 81.6152 267.191 81.4199 265.98 81.0293C264.789 80.6387 263.695 80.0527 262.699 79.2715C261.722 78.4707 260.892 77.4746 260.209 76.2832H260.15V81H254.086V37.3477H260.267V54.5449H260.326C260.99 53.3926 261.8 52.4453 262.757 51.7031C263.734 50.9609 264.818 50.4043 266.009 50.0332C267.22 49.6426 268.49 49.4473 269.818 49.4473C272.494 49.4473 274.828 50.1309 276.82 51.498C278.832 52.8457 280.394 54.7305 281.507 57.1523C282.64 59.5547 283.207 62.3477 283.207 65.5312C283.207 68.7148 282.65 71.5176 281.537 73.9395C280.423 76.3418 278.861 78.2266 276.849 79.5938C274.837 80.9414 272.484 81.6152 269.789 81.6152ZM268.529 76.2832C270.209 76.2832 271.673 75.873 272.923 75.0527C274.173 74.2129 275.15 73.002 275.853 71.4199C276.576 69.8184 276.937 67.8555 276.937 65.5312C276.937 63.1875 276.576 61.2148 275.853 59.6133C275.15 58.0117 274.173 56.8008 272.923 55.9805C271.673 55.1602 270.209 54.75 268.529 54.75C266.771 54.75 265.238 55.1992 263.929 56.0977C262.64 56.9766 261.634 58.2266 260.912 59.8477C260.209 61.4492 259.857 63.3438 259.857 65.5312C259.857 67.6797 260.209 69.5645 260.912 71.1855C261.634 72.8066 262.64 74.0664 263.929 74.9648C265.238 75.8438 266.771 76.2832 268.529 76.2832ZM297.726 63.9V59.64H353.106V63.9H297.726ZM369.671 81V37.3477H378.841L388.626 62.9238C388.88 63.6465 389.193 64.5352 389.564 65.5898C389.935 66.6445 390.316 67.748 390.706 68.9004C391.097 70.0527 391.458 71.1465 391.79 72.1816C392.142 73.2168 392.425 74.0664 392.64 74.7305H391.087C391.302 74.0664 391.575 73.2168 391.907 72.1816C392.239 71.1465 392.601 70.0527 392.991 68.9004C393.382 67.748 393.763 66.6445 394.134 65.5898C394.505 64.5352 394.808 63.6465 395.042 62.9238L404.681 37.3477H413.88V81H407.493V57.2109C407.493 56.2539 407.493 55.1992 407.493 54.0469C407.513 52.875 407.542 51.6543 407.581 50.3848C407.62 49.1152 407.65 47.8359 407.669 46.5469C407.708 45.2578 407.737 44.0176 407.757 42.8262H408.607C408.138 44.252 407.659 45.668 407.171 47.0742C406.702 48.4609 406.253 49.7891 405.823 51.0586C405.394 52.3086 404.993 53.4609 404.622 54.5156C404.271 55.5508 403.948 56.4492 403.655 57.2109L394.456 81H389.124L379.837 57.2109C379.544 56.4492 379.212 55.5508 378.841 54.5156C378.47 53.4609 378.06 52.3086 377.611 51.0586C377.181 49.7891 376.712 48.4609 376.204 47.0742C375.716 45.668 375.218 44.252 374.71 42.8262H375.823C375.843 44.0176 375.862 45.2578 375.882 46.5469C375.921 47.8359 375.95 49.1152 375.97 50.3848C376.009 51.6543 376.038 52.875 376.058 54.0469C376.077 55.1992 376.087 56.2539 376.087 57.2109V81H369.671ZM432.193 81.7031C429.127 81.7031 426.49 81.0098 424.283 79.623C422.095 78.2363 420.406 76.332 419.214 73.9102C418.043 71.4688 417.457 68.6953 417.457 65.5898C417.457 62.4258 418.072 59.6328 419.302 57.2109C420.533 54.7695 422.232 52.8555 424.4 51.4688C426.568 50.0625 429.058 49.3594 431.871 49.3594C434.058 49.3594 436.031 49.75 437.789 50.5312C439.566 51.3125 441.089 52.4258 442.359 53.8711C443.629 55.2969 444.605 56.9961 445.289 58.9688C445.972 60.9414 446.314 63.1289 446.314 65.5312V67.2012H420.24V62.5137H443.062L440.337 63.9492C440.337 62.0352 439.996 60.375 439.312 58.9688C438.629 57.543 437.652 56.4492 436.382 55.6875C435.132 54.9062 433.648 54.5156 431.929 54.5156C430.23 54.5156 428.755 54.9062 427.505 55.6875C426.255 56.4492 425.279 57.543 424.576 58.9688C423.892 60.375 423.55 62.0352 423.55 63.9492V66.6152C423.55 68.5684 423.892 70.2969 424.576 71.8008C425.259 73.2852 426.246 74.4473 427.535 75.2871C428.843 76.127 430.425 76.5469 432.281 76.5469C433.629 76.5469 434.82 76.3418 435.855 75.9316C436.89 75.502 437.75 74.916 438.433 74.1738C439.117 73.4316 439.605 72.5723 439.898 71.5957H445.845C445.474 73.5879 444.644 75.3457 443.355 76.8691C442.086 78.373 440.484 79.5547 438.55 80.4141C436.636 81.2734 434.517 81.7031 432.193 81.7031ZM461.17 81.6152C458.494 81.6152 456.141 80.9414 454.109 79.5938C452.098 78.2266 450.535 76.3418 449.422 73.9395C448.309 71.5176 447.752 68.7148 447.752 65.5312C447.752 62.3477 448.309 59.5547 449.422 57.1523C450.555 54.7305 452.127 52.8457 454.139 51.498C456.15 50.1309 458.484 49.4473 461.141 49.4473C462.488 49.4473 463.758 49.6426 464.949 50.0332C466.141 50.4043 467.215 50.9609 468.172 51.7031C469.148 52.4453 469.969 53.3926 470.633 54.5449H470.691V37.3477H476.873V81H470.809V76.2832H470.75C470.047 77.4746 469.207 78.4707 468.23 79.2715C467.254 80.0527 466.17 80.6387 464.979 81.0293C463.787 81.4199 462.518 81.6152 461.17 81.6152ZM462.43 76.2832C464.188 76.2832 465.711 75.8438 467 74.9648C468.309 74.0664 469.314 72.8066 470.018 71.1855C470.74 69.5645 471.102 67.6797 471.102 65.5312C471.102 63.3438 470.74 61.4492 470.018 59.8477C469.314 58.2266 468.309 56.9766 467 56.0977C465.711 55.1992 464.188 54.75 462.43 54.75C460.77 54.75 459.305 55.1602 458.035 55.9805C456.785 56.8008 455.799 58.0117 455.076 59.6133C454.373 61.2148 454.021 63.1875 454.021 65.5312C454.021 67.8555 454.373 69.8184 455.076 71.4199C455.799 73.002 456.785 74.2129 458.035 75.0527C459.305 75.873 460.77 76.2832 462.43 76.2832ZM481.446 81V50.0625H487.627V81H481.446ZM484.522 44.7305C483.428 44.7305 482.5 44.3691 481.739 43.6465C480.996 42.9043 480.625 42.0059 480.625 40.9512C480.625 39.877 480.996 38.9785 481.739 38.2559C482.5 37.5137 483.428 37.1426 484.522 37.1426C485.616 37.1426 486.543 37.5137 487.305 38.2559C488.067 38.9785 488.448 39.877 488.448 40.9512C488.448 42.0059 488.067 42.9043 487.305 43.6465C486.543 44.3691 485.616 44.7305 484.522 44.7305ZM501.663 81.498C499.612 81.498 497.776 81.1465 496.155 80.4434C494.554 79.7402 493.284 78.6953 492.346 77.3086C491.409 75.9219 490.94 74.2031 490.94 72.1523C490.94 70.3945 491.272 68.9492 491.936 67.8164C492.62 66.6836 493.538 65.7852 494.69 65.1211C495.843 64.457 497.151 63.959 498.616 63.627C500.081 63.2754 501.595 63.0117 503.157 62.8359C505.11 62.582 506.643 62.3867 507.757 62.25C508.889 62.0938 509.69 61.8594 510.159 61.5469C510.647 61.2148 510.891 60.6777 510.891 59.9355V59.6719C510.891 58.6758 510.647 57.7969 510.159 57.0352C509.671 56.2539 508.958 55.6387 508.02 55.1895C507.083 54.7402 505.96 54.5156 504.651 54.5156C503.343 54.5156 502.18 54.7305 501.165 55.1602C500.169 55.5898 499.368 56.1855 498.763 56.9473C498.177 57.6895 497.845 58.5391 497.766 59.4961H491.702C491.8 57.5234 492.395 55.7852 493.489 54.2812C494.583 52.7773 496.087 51.5957 498.001 50.7363C499.915 49.877 502.161 49.4473 504.739 49.4473C506.634 49.4473 508.343 49.6914 509.866 50.1797C511.389 50.668 512.679 51.3711 513.733 52.2891C514.807 53.1875 515.618 54.2715 516.165 55.541C516.731 56.8105 517.014 58.2266 517.014 59.7891V81H510.921V76.6055H510.804C510.374 77.4453 509.788 78.2363 509.046 78.9785C508.304 79.7207 507.327 80.3262 506.116 80.7949C504.925 81.2637 503.44 81.498 501.663 81.498ZM502.923 76.5176C504.739 76.5176 506.233 76.1953 507.405 75.5508C508.596 74.8867 509.475 74.0176 510.042 72.9434C510.628 71.8691 510.921 70.6973 510.921 69.4277V65.7949C510.706 65.9707 510.354 66.1367 509.866 66.293C509.397 66.4297 508.821 66.5664 508.138 66.7031C507.454 66.8203 506.712 66.9473 505.911 67.084C505.11 67.2207 504.309 67.3379 503.509 67.4355C502.376 67.5918 501.321 67.8555 500.345 68.2266C499.368 68.5781 498.577 69.0762 497.971 69.7207C497.386 70.3652 497.093 71.2148 497.093 72.2695C497.093 73.1484 497.327 73.9102 497.796 74.5547C498.264 75.1797 498.938 75.668 499.817 76.0195C500.696 76.3516 501.731 76.5176 502.923 76.5176ZM521.587 93.2461V50.0625H527.652V54.5156H527.739C528.384 53.3828 529.195 52.4453 530.171 51.7031C531.167 50.9609 532.271 50.4043 533.482 50.0332C534.712 49.6426 535.991 49.4473 537.32 49.4473C539.995 49.4473 542.329 50.1309 544.321 51.498C546.333 52.8457 547.896 54.7305 549.009 57.1523C550.142 59.5547 550.708 62.3477 550.708 65.5312C550.708 68.7148 550.152 71.5176 549.038 73.9395C547.925 76.3418 546.362 78.2266 544.351 79.5938C542.339 80.9414 539.986 81.6152 537.29 81.6152C535.962 81.6152 534.702 81.4199 533.511 81.0293C532.339 80.6387 531.275 80.0527 530.318 79.2715C529.361 78.4902 528.54 77.5137 527.857 76.3418H527.769V93.2461H521.587ZM536.03 76.2832C537.71 76.2832 539.175 75.873 540.425 75.0527C541.675 74.2129 542.652 73.002 543.355 71.4199C544.077 69.8184 544.439 67.8555 544.439 65.5312C544.439 63.1875 544.077 61.2148 543.355 59.6133C542.652 58.0117 541.675 56.8008 540.425 55.9805C539.175 55.1602 537.71 54.75 536.03 54.75C534.273 54.75 532.739 55.1992 531.431 56.0977C530.142 56.9766 529.136 58.2266 528.413 59.8477C527.71 61.4492 527.359 63.3438 527.359 65.5312C527.359 67.6797 527.71 69.5645 528.413 71.1855C529.136 72.8066 530.142 74.0664 531.431 74.9648C532.739 75.8438 534.273 76.2832 536.03 76.2832ZM553.757 81V50.0625H559.939V81H553.757ZM556.834 44.7305C555.74 44.7305 554.812 44.3691 554.05 43.6465C553.308 42.9043 552.937 42.0059 552.937 40.9512C552.937 39.877 553.308 38.9785 554.05 38.2559C554.812 37.5137 555.74 37.1426 556.834 37.1426C557.927 37.1426 558.855 37.5137 559.617 38.2559C560.379 38.9785 560.759 39.877 560.759 40.9512C560.759 42.0059 560.379 42.9043 559.617 43.6465C558.855 44.3691 557.927 44.7305 556.834 44.7305ZM564.541 93.2461V50.0625H570.605V54.5156H570.693C571.338 53.3828 572.148 52.4453 573.125 51.7031C574.121 50.9609 575.225 50.4043 576.436 50.0332C577.666 49.6426 578.945 49.4473 580.273 49.4473C582.949 49.4473 585.283 50.1309 587.275 51.498C589.287 52.8457 590.85 54.7305 591.963 57.1523C593.096 59.5547 593.662 62.3477 593.662 65.5312C593.662 68.7148 593.105 71.5176 591.992 73.9395C590.879 76.3418 589.316 78.2266 587.305 79.5938C585.293 80.9414 582.939 81.6152 580.244 81.6152C578.916 81.6152 577.656 81.4199 576.465 81.0293C575.293 80.6387 574.229 80.0527 573.271 79.2715C572.314 78.4902 571.494 77.5137 570.811 76.3418H570.723V93.2461H564.541ZM578.984 76.2832C580.664 76.2832 582.129 75.873 583.379 75.0527C584.629 74.2129 585.605 73.002 586.309 71.4199C587.031 69.8184 587.393 67.8555 587.393 65.5312C587.393 63.1875 587.031 61.2148 586.309 59.6133C585.605 58.0117 584.629 56.8008 583.379 55.9805C582.129 55.1602 580.664 54.75 578.984 54.75C577.227 54.75 575.693 55.1992 574.385 56.0977C573.096 56.9766 572.09 58.2266 571.367 59.8477C570.664 61.4492 570.312 63.3438 570.312 65.5312C570.312 67.6797 570.664 69.5645 571.367 71.1855C572.09 72.8066 573.096 74.0664 574.385 74.9648C575.693 75.8438 577.227 76.2832 578.984 76.2832ZM609.924 81.7031C606.858 81.7031 604.221 81.0098 602.014 79.623C599.827 78.2363 598.137 76.332 596.946 73.9102C595.774 71.4688 595.188 68.6953 595.188 65.5898C595.188 62.4258 595.803 59.6328 597.034 57.2109C598.264 54.7695 599.963 52.8555 602.131 51.4688C604.299 50.0625 606.789 49.3594 609.602 49.3594C611.789 49.3594 613.762 49.75 615.52 50.5312C617.297 51.3125 618.821 52.4258 620.09 53.8711C621.36 55.2969 622.336 56.9961 623.02 58.9688C623.703 60.9414 624.045 63.1289 624.045 65.5312V67.2012H597.971V62.5137H620.793L618.069 63.9492C618.069 62.0352 617.727 60.375 617.043 58.9688C616.36 57.543 615.383 56.4492 614.114 55.6875C612.864 54.9062 611.379 54.5156 609.661 54.5156C607.961 54.5156 606.487 54.9062 605.237 55.6875C603.987 56.4492 603.01 57.543 602.307 58.9688C601.623 60.375 601.282 62.0352 601.282 63.9492V66.6152C601.282 68.5684 601.623 70.2969 602.307 71.8008C602.991 73.2852 603.977 74.4473 605.266 75.2871C606.575 76.127 608.157 76.5469 610.012 76.5469C611.36 76.5469 612.551 76.3418 613.586 75.9316C614.621 75.502 615.481 74.916 616.164 74.1738C616.848 73.4316 617.336 72.5723 617.629 71.5957H623.577C623.205 73.5879 622.375 75.3457 621.086 76.8691C619.817 78.373 618.215 79.5547 616.282 80.4141C614.368 81.2734 612.248 81.7031 609.924 81.7031ZM653.904 50.0625V55.1602H635.886V50.0625H653.904ZM641.423 81V45.0527C641.423 43.4121 641.765 42.0254 642.448 40.8926C643.152 39.7402 644.157 38.8613 645.466 38.2559C646.775 37.6504 648.357 37.3477 650.212 37.3477C651.013 37.3477 651.765 37.3477 652.468 37.3477C653.191 37.3477 653.669 37.3477 653.904 37.3477V42.4453C653.708 42.4453 653.298 42.4453 652.673 42.4453C652.048 42.4453 651.54 42.4453 651.15 42.4453C649.88 42.4453 648.972 42.7285 648.425 43.2949C647.878 43.8418 647.605 44.7598 647.605 46.0488V81H641.423ZM656.191 81V50.0625H662.109V55.0723H662.226C662.793 53.373 663.681 52.0547 664.892 51.1172C666.123 50.1602 667.724 49.6816 669.697 49.6816C670.166 49.6816 670.595 49.7012 670.986 49.7402C671.396 49.7598 671.718 49.7891 671.953 49.8281V55.5996C671.718 55.541 671.298 55.4824 670.693 55.4238C670.088 55.3457 669.423 55.3066 668.701 55.3066C667.548 55.3066 666.484 55.5703 665.507 56.0977C664.55 56.625 663.789 57.4355 663.222 58.5293C662.656 59.623 662.373 61.0195 662.373 62.7188V81H656.191ZM687.014 81.7031C684.064 81.7031 681.477 81.0195 679.25 79.6523C677.023 78.2852 675.285 76.3906 674.035 73.9688C672.805 71.5469 672.189 68.7539 672.189 65.5898C672.189 62.3867 672.805 59.5742 674.035 57.1523C675.285 54.7109 677.023 52.8066 679.25 51.4395C681.477 50.0527 684.064 49.3594 687.014 49.3594C689.963 49.3594 692.541 50.0527 694.748 51.4395C696.975 52.8066 698.703 54.7109 699.934 57.1523C701.184 59.5742 701.809 62.3867 701.809 65.5898C701.809 68.7539 701.184 71.5469 699.934 73.9688C698.703 76.3906 696.975 78.2852 694.748 79.6523C692.541 81.0195 689.963 81.7031 687.014 81.7031ZM687.014 76.3711C688.771 76.3711 690.285 75.9316 691.555 75.0527C692.844 74.1543 693.83 72.8945 694.514 71.2734C695.217 69.6523 695.568 67.7578 695.568 65.5898C695.568 63.3633 695.217 61.4395 694.514 59.8184C693.83 58.1973 692.844 56.9375 691.555 56.0391C690.285 55.1406 688.771 54.6914 687.014 54.6914C685.256 54.6914 683.732 55.1406 682.443 56.0391C681.174 56.918 680.188 58.1777 679.484 59.8184C678.801 61.4395 678.459 63.3633 678.459 65.5898C678.459 67.7773 678.801 69.6816 679.484 71.3027C680.188 72.9043 681.174 74.1543 682.443 75.0527C683.713 75.9316 685.236 76.3711 687.014 76.3711ZM704.887 81V50.0625H710.893V56.5957H710.307C710.893 55.0332 711.674 53.7246 712.651 52.6699C713.647 51.5957 714.789 50.7949 716.078 50.2676C717.368 49.7207 718.715 49.4473 720.121 49.4473C722.524 49.4473 724.575 50.1406 726.274 51.5273C727.993 52.8945 729.047 54.584 729.438 56.5957H728.471C728.901 55.2285 729.594 54.0078 730.551 52.9336C731.528 51.8594 732.719 51.0098 734.125 50.3848C735.532 49.7598 737.094 49.4473 738.813 49.4473C740.746 49.4473 742.495 49.8672 744.057 50.707C745.62 51.5469 746.86 52.7969 747.778 54.457C748.696 56.0977 749.155 58.1582 749.155 60.6387V81H742.944V61.166C742.944 58.959 742.328 57.3574 741.098 56.3613C739.868 55.3652 738.412 54.8672 736.733 54.8672C735.366 54.8672 734.184 55.1602 733.188 55.7461C732.192 56.332 731.42 57.1328 730.873 58.1484C730.327 59.1641 730.053 60.3359 730.053 61.6641V81H723.959V60.7559C723.959 58.9785 723.383 57.5527 722.231 56.4785C721.098 55.4043 719.653 54.8672 717.895 54.8672C716.703 54.8672 715.58 55.1504 714.526 55.7168C713.491 56.2832 712.651 57.123 712.006 58.2363C711.381 59.3301 711.069 60.6973 711.069 62.3379V81H704.887ZM771.835 63.1875V81H765.654V37.3477H771.835V57.7383H770.282C771.298 54.9648 772.704 52.8945 774.501 51.5273C776.318 50.1406 778.505 49.4473 781.064 49.4473C783.193 49.4473 785.097 49.916 786.777 50.8535C788.476 51.7715 789.814 53.1387 790.79 54.9551C791.767 56.7715 792.255 59.0273 792.255 61.7227V81H786.073V62.4844C786.073 60.0039 785.478 58.1387 784.286 56.8887C783.114 55.6191 781.454 54.9844 779.306 54.9844C777.9 54.9844 776.63 55.2676 775.497 55.834C774.384 56.4004 773.495 57.2891 772.831 58.5C772.167 59.7109 771.835 61.2734 771.835 63.1875ZM810.041 81.7031C806.974 81.7031 804.338 81.0098 802.13 79.623C799.943 78.2363 798.254 76.332 797.062 73.9102C795.89 71.4688 795.304 68.6953 795.304 65.5898C795.304 62.4258 795.92 59.6328 797.15 57.2109C798.38 54.7695 800.08 52.8555 802.248 51.4688C804.416 50.0625 806.906 49.3594 809.718 49.3594C811.906 49.3594 813.879 49.75 815.636 50.5312C817.414 51.3125 818.937 52.4258 820.207 53.8711C821.476 55.2969 822.453 56.9961 823.136 58.9688C823.82 60.9414 824.162 63.1289 824.162 65.5312V67.2012H798.088V62.5137H820.91L818.185 63.9492C818.185 62.0352 817.843 60.375 817.16 58.9688C816.476 57.543 815.5 56.4492 814.23 55.6875C812.98 54.9062 811.496 54.5156 809.777 54.5156C808.078 54.5156 806.603 54.9062 805.353 55.6875C804.103 56.4492 803.127 57.543 802.423 58.9688C801.74 60.375 801.398 62.0352 801.398 63.9492V66.6152C801.398 68.5684 801.74 70.2969 802.423 71.8008C803.107 73.2852 804.093 74.4473 805.382 75.2871C806.691 76.127 808.273 76.5469 810.129 76.5469C811.476 76.5469 812.668 76.3418 813.703 75.9316C814.738 75.502 815.597 74.916 816.281 74.1738C816.964 73.4316 817.453 72.5723 817.746 71.5957H823.693C823.322 73.5879 822.492 75.3457 821.203 76.8691C819.933 78.373 818.332 79.5547 816.398 80.4141C814.484 81.2734 812.365 81.7031 810.041 81.7031ZM833.305 37.3477V81H827.123V37.3477H833.305ZM844.088 37.3477V81H837.907V37.3477H844.088Z" fill="white"/>
</g>
</g>
</svg>
